# xmcd
# Track frame offsets:
# 150
# 13014
# 23793
# 33813
# 42768
# 54344
# 69197
# 81948
# 93586
# 105246
# 117984
# 129345
#
# Disc length: 1929 seconds
# Revision: 0
# Processed by: cddbd v1.5.1PL0 Copyright (c) Steve Scherf et al.
# Submitted via: VisiTrax 2.9.10.228 - For more info visit www.synapsa.com
#
DISCID=8707870c
DTITLE=Buddy Ebsen - Buddy Ebsen Says Howdy
DYEAR=1900
DGENRE=
TTITLE0=Howdy
TTITLE1=Bonaparte's Retreat
TTITLE2=You Are My Sunshine
TTITLE3=Tennessee Walking Horse
TTITLE4=Cold, Cold Heart
TTITLE5=Everything's Okay
TTITLE6=Your Cheatin' Heart
TTITLE7=Countryfied
TTITLE8=Keep A-Thinkin' Pretty
TTITLE9=Dear Hearts And Gentle People
TTITLE10=Don't Rob Another Man' Castle
TTITLE11=Men With Broken Hearts
EXTD=Collector's Choice Music CCM-411-2 c. 2003
EXTT0=
EXTT1=
EXTT2=
EXTT3=
EXTT4=
EXTT5=
EXTT6=
EXTT7=
EXTT8=
EXTT9=
EXTT10=
EXTT11=
PLAYORDER=
